<mxfile host="app.diagrams.net" agent="Mozilla/5.0 (Windows NT 10.0; Win64; x64) AppleWebKit/537.36 (KHTML, like Gecko) Chrome/131.0.0.0 Safari/537.36" version="26.0.4">
  <diagram name="Page-1" id="xlpdYjgYw3qPz9PH2eGz">
    <mxGraphModel dx="2667" dy="850" grid="1" gridSize="10" guides="1" tooltips="1" connect="1" arrows="1" fold="1" page="1" pageScale="1" pageWidth="827" pageHeight="1169" math="0" shadow="0">
      <root>
        <mxCell id="0" />
        <mxCell id="1" parent="0" />
        <mxCell id="akqkvoF0evXeWd-GE654-23" style="edgeStyle=orthogonalEdgeStyle;rounded=0;orthogonalLoop=1;jettySize=auto;html=1;" edge="1" parent="1" source="akqkvoF0evXeWd-GE654-21" target="akqkvoF0evXeWd-GE654-22">
          <mxGeometry relative="1" as="geometry" />
        </mxCell>
        <mxCell id="akqkvoF0evXeWd-GE654-27" style="edgeStyle=orthogonalEdgeStyle;rounded=0;orthogonalLoop=1;jettySize=auto;html=1;entryX=0.5;entryY=0;entryDx=0;entryDy=0;" edge="1" parent="1" source="akqkvoF0evXeWd-GE654-21" target="akqkvoF0evXeWd-GE654-26">
          <mxGeometry relative="1" as="geometry" />
        </mxCell>
        <mxCell id="akqkvoF0evXeWd-GE654-70" style="edgeStyle=orthogonalEdgeStyle;rounded=0;orthogonalLoop=1;jettySize=auto;html=1;entryX=0.5;entryY=0;entryDx=0;entryDy=0;" edge="1" parent="1" source="akqkvoF0evXeWd-GE654-21" target="akqkvoF0evXeWd-GE654-69">
          <mxGeometry relative="1" as="geometry" />
        </mxCell>
        <mxCell id="akqkvoF0evXeWd-GE654-21" value="&lt;p style=&quot;text-indent:-18.0pt;mso-list:l0 level1 lfo1&quot; class=&quot;MsoListParagraph&quot;&gt;&lt;span style=&quot;font-family:&amp;quot;Times New Roman&amp;quot;,serif;mso-ascii-theme-font:major-bidi;&lt;br/&gt;mso-fareast-font-family:&amp;quot;Times New Roman&amp;quot;;mso-fareast-theme-font:major-bidi;&lt;br/&gt;mso-hansi-theme-font:major-bidi;mso-bidi-theme-font:major-bidi&quot;&gt;&lt;span style=&quot;font-variant-numeric: normal; font-variant-east-asian: normal; font-variant-alternates: normal; font-size-adjust: none; font-kerning: auto; font-optical-sizing: auto; font-feature-settings: normal; font-variation-settings: normal; font-variant-position: normal; font-variant-emoji: normal; font-stretch: normal; font-size: 7pt; line-height: normal; font-family: &amp;quot;Times New Roman&amp;quot;;&quot;&gt;&amp;nbsp; &amp;nbsp;&lt;br&gt;&lt;/span&gt;&lt;/span&gt;&lt;span dir=&quot;LTR&quot;&gt;&lt;/span&gt;&lt;span style=&quot;font-family:&lt;br/&gt;&amp;quot;Times New Roman&amp;quot;,serif;mso-ascii-theme-font:major-bidi;mso-hansi-theme-font:&lt;br/&gt;major-bidi;mso-bidi-theme-font:major-bidi&quot;&gt;Trigger false alerts or flood the system&lt;br&gt;with fake emergency notifications&lt;/span&gt;&lt;/p&gt;" style="rounded=1;whiteSpace=wrap;html=1;" vertex="1" parent="1">
          <mxGeometry x="410" y="680" width="230" height="60" as="geometry" />
        </mxCell>
        <mxCell id="akqkvoF0evXeWd-GE654-29" style="edgeStyle=orthogonalEdgeStyle;rounded=0;orthogonalLoop=1;jettySize=auto;html=1;" edge="1" parent="1" target="akqkvoF0evXeWd-GE654-28">
          <mxGeometry relative="1" as="geometry">
            <mxPoint x="27.46" y="950" as="sourcePoint" />
          </mxGeometry>
        </mxCell>
        <mxCell id="akqkvoF0evXeWd-GE654-39" style="edgeStyle=orthogonalEdgeStyle;rounded=0;orthogonalLoop=1;jettySize=auto;html=1;exitX=0;exitY=0.5;exitDx=0;exitDy=0;entryX=0.5;entryY=0;entryDx=0;entryDy=0;" edge="1" parent="1" source="akqkvoF0evXeWd-GE654-22" target="akqkvoF0evXeWd-GE654-42">
          <mxGeometry relative="1" as="geometry">
            <mxPoint x="-450" y="970.0000000000002" as="targetPoint" />
          </mxGeometry>
        </mxCell>
        <mxCell id="akqkvoF0evXeWd-GE654-22" value="OR&lt;br&gt;Emergency Notification System" style="rounded=1;whiteSpace=wrap;html=1;" vertex="1" parent="1">
          <mxGeometry y="860" width="170" height="90" as="geometry" />
        </mxCell>
        <mxCell id="akqkvoF0evXeWd-GE654-71" style="edgeStyle=orthogonalEdgeStyle;rounded=0;orthogonalLoop=1;jettySize=auto;html=1;entryX=0.5;entryY=0;entryDx=0;entryDy=0;" edge="1" parent="1" source="akqkvoF0evXeWd-GE654-26" target="akqkvoF0evXeWd-GE654-45">
          <mxGeometry relative="1" as="geometry" />
        </mxCell>
        <mxCell id="akqkvoF0evXeWd-GE654-26" value="OR&lt;br&gt;Jogging App Server Backend" style="rounded=1;whiteSpace=wrap;html=1;" vertex="1" parent="1">
          <mxGeometry x="840" y="780" width="190" height="90" as="geometry" />
        </mxCell>
        <mxCell id="akqkvoF0evXeWd-GE654-34" style="edgeStyle=orthogonalEdgeStyle;rounded=0;orthogonalLoop=1;jettySize=auto;html=1;entryX=0.5;entryY=0;entryDx=0;entryDy=0;" edge="1" parent="1" source="akqkvoF0evXeWd-GE654-28" target="akqkvoF0evXeWd-GE654-33">
          <mxGeometry relative="1" as="geometry" />
        </mxCell>
        <mxCell id="akqkvoF0evXeWd-GE654-28" value="OR&lt;br&gt;Weak Authentication&lt;div&gt;&lt;br/&gt;&lt;/div&gt;" style="rounded=1;whiteSpace=wrap;html=1;strokeColor=yellow;" vertex="1" parent="1">
          <mxGeometry x="-52.54" y="1030" width="160" height="90" as="geometry" />
        </mxCell>
        <mxCell id="akqkvoF0evXeWd-GE654-33" value="&#xa;Social engineering (phishing admins).&#xa;&#xa;" style="rounded=1;whiteSpace=wrap;html=1;strokeColor=red;" vertex="1" parent="1">
          <mxGeometry x="-32.54" y="1180" width="120" height="60" as="geometry" />
        </mxCell>
        <mxCell id="akqkvoF0evXeWd-GE654-72" style="edgeStyle=orthogonalEdgeStyle;rounded=0;orthogonalLoop=1;jettySize=auto;html=1;" edge="1" parent="1" source="akqkvoF0evXeWd-GE654-42" target="akqkvoF0evXeWd-GE654-43">
          <mxGeometry relative="1" as="geometry" />
        </mxCell>
        <mxCell id="akqkvoF0evXeWd-GE654-42" value="&lt;div&gt;No rate limiting or anomaly detection on APIs&lt;/div&gt;" style="rounded=1;whiteSpace=wrap;html=1;strokeColor=yellow;" vertex="1" parent="1">
          <mxGeometry x="-360" y="950" width="175" height="90" as="geometry" />
        </mxCell>
        <mxCell id="akqkvoF0evXeWd-GE654-43" value="&lt;br&gt;Flooding the system with illegitimate emergency alerts" style="rounded=1;whiteSpace=wrap;html=1;strokeColor=red;" vertex="1" parent="1">
          <mxGeometry x="-372.5" y="1150" width="200" height="80" as="geometry" />
        </mxCell>
        <mxCell id="akqkvoF0evXeWd-GE654-85" style="edgeStyle=orthogonalEdgeStyle;rounded=0;orthogonalLoop=1;jettySize=auto;html=1;entryX=0;entryY=0.5;entryDx=0;entryDy=0;" edge="1" parent="1" source="akqkvoF0evXeWd-GE654-45" target="akqkvoF0evXeWd-GE654-48">
          <mxGeometry relative="1" as="geometry" />
        </mxCell>
        <mxCell id="akqkvoF0evXeWd-GE654-45" value="Compromised credentials" style="rounded=1;whiteSpace=wrap;html=1;strokeColor=yellow;" vertex="1" parent="1">
          <mxGeometry x="846" y="955" width="180" height="75" as="geometry" />
        </mxCell>
        <mxCell id="akqkvoF0evXeWd-GE654-46" value="&lt;div&gt;weak authentication&lt;/div&gt;" style="rounded=1;whiteSpace=wrap;html=1;strokeColor=yellow;" vertex="1" parent="1">
          <mxGeometry x="1130" y="957.5" width="190" height="80" as="geometry" />
        </mxCell>
        <mxCell id="akqkvoF0evXeWd-GE654-47" style="edgeStyle=orthogonalEdgeStyle;rounded=0;orthogonalLoop=1;jettySize=auto;html=1;entryX=0.445;entryY=0.048;entryDx=0;entryDy=0;entryPerimeter=0;" edge="1" parent="1" source="akqkvoF0evXeWd-GE654-26" target="akqkvoF0evXeWd-GE654-46">
          <mxGeometry relative="1" as="geometry" />
        </mxCell>
        <mxCell id="akqkvoF0evXeWd-GE654-48" value="&lt;br&gt;Trigger fake alerts by abusing notification APIs&amp;nbsp;" style="rounded=1;whiteSpace=wrap;html=1;strokeColor=red;" vertex="1" parent="1">
          <mxGeometry x="1010" y="1120" width="166" height="90" as="geometry" />
        </mxCell>
        <mxCell id="akqkvoF0evXeWd-GE654-78" style="edgeStyle=orthogonalEdgeStyle;rounded=0;orthogonalLoop=1;jettySize=auto;html=1;entryX=0.5;entryY=0;entryDx=0;entryDy=0;" edge="1" parent="1" source="akqkvoF0evXeWd-GE654-69" target="akqkvoF0evXeWd-GE654-77">
          <mxGeometry relative="1" as="geometry" />
        </mxCell>
        <mxCell id="akqkvoF0evXeWd-GE654-69" value="&lt;br&gt;OR&lt;br&gt;Close Contacts (Notification Recipients&lt;div&gt;&lt;br/&gt;&lt;/div&gt;" style="rounded=1;whiteSpace=wrap;html=1;" vertex="1" parent="1">
          <mxGeometry x="440" y="830" width="170" height="60" as="geometry" />
        </mxCell>
        <mxCell id="akqkvoF0evXeWd-GE654-75" style="edgeStyle=orthogonalEdgeStyle;rounded=0;orthogonalLoop=1;jettySize=auto;html=1;entryX=1.002;entryY=0.586;entryDx=0;entryDy=0;entryPerimeter=0;" edge="1" parent="1" source="akqkvoF0evXeWd-GE654-46" target="akqkvoF0evXeWd-GE654-48">
          <mxGeometry relative="1" as="geometry" />
        </mxCell>
        <mxCell id="akqkvoF0evXeWd-GE654-80" style="edgeStyle=orthogonalEdgeStyle;rounded=0;orthogonalLoop=1;jettySize=auto;html=1;" edge="1" parent="1" source="akqkvoF0evXeWd-GE654-77" target="akqkvoF0evXeWd-GE654-79">
          <mxGeometry relative="1" as="geometry" />
        </mxCell>
        <mxCell id="akqkvoF0evXeWd-GE654-77" value="&lt;br&gt; Over reliance on a single notification channel&lt;br&gt;&amp;nbsp;(Could be SMS)&lt;div&gt;&lt;br/&gt;&lt;/div&gt;" style="rounded=1;whiteSpace=wrap;html=1;strokeColor=yellow;" vertex="1" parent="1">
          <mxGeometry x="447.5" y="965" width="155" height="85" as="geometry" />
        </mxCell>
        <mxCell id="akqkvoF0evXeWd-GE654-79" value="&#xa;Receiving spam notifications reduces trust in emergency alerts&#xa;&#xa;" style="rounded=1;whiteSpace=wrap;html=1;strokeColor=red;" vertex="1" parent="1">
          <mxGeometry x="442.5" y="1110" width="165" height="80" as="geometry" />
        </mxCell>
        <mxCell id="akqkvoF0evXeWd-GE654-88" style="edgeStyle=orthogonalEdgeStyle;rounded=0;orthogonalLoop=1;jettySize=auto;html=1;entryX=0.75;entryY=1;entryDx=0;entryDy=0;" edge="1" parent="1" source="akqkvoF0evXeWd-GE654-81" target="akqkvoF0evXeWd-GE654-22">
          <mxGeometry relative="1" as="geometry" />
        </mxCell>
        <mxCell id="akqkvoF0evXeWd-GE654-81" value="&#xa;Denial-of-service (DoS) attacks&#xa;&#xa;" style="rounded=1;whiteSpace=wrap;html=1;strokeColor=red;" vertex="1" parent="1">
          <mxGeometry x="200" y="980" width="158" height="60" as="geometry" />
        </mxCell>
        <mxCell id="akqkvoF0evXeWd-GE654-87" style="edgeStyle=orthogonalEdgeStyle;rounded=0;orthogonalLoop=1;jettySize=auto;html=1;entryX=0;entryY=0.5;entryDx=0;entryDy=0;" edge="1" parent="1" source="akqkvoF0evXeWd-GE654-83" target="akqkvoF0evXeWd-GE654-26">
          <mxGeometry relative="1" as="geometry" />
        </mxCell>
        <mxCell id="akqkvoF0evXeWd-GE654-83" value="&lt;br&gt;brute force credential attacks to gain API access&lt;div&gt;&lt;br/&gt;&lt;/div&gt;" style="rounded=1;whiteSpace=wrap;html=1;strokeColor=red;" vertex="1" parent="1">
          <mxGeometry x="670" y="1125" width="200" height="80" as="geometry" />
        </mxCell>
        <mxCell id="akqkvoF0evXeWd-GE654-89" value="Vulnerability" style="rounded=1;whiteSpace=wrap;html=1;strokeColor=yellow;" vertex="1" parent="1">
          <mxGeometry x="-280" y="600" width="120" height="60" as="geometry" />
        </mxCell>
        <mxCell id="akqkvoF0evXeWd-GE654-90" value="Threat" style="rounded=1;whiteSpace=wrap;html=1;strokeColor=red;" vertex="1" parent="1">
          <mxGeometry x="-280" y="700" width="120" height="60" as="geometry" />
        </mxCell>
      </root>
    </mxGraphModel>
  </diagram>
</mxfile>
